# MagicaVoxel @ Ephtracy

# group
o RockSmall

# material
mtllib DesertProps-1-RockSmall.mtl
usemtl palette

# normals
vn -1 0 0
vn 1 0 0
vn 0 0 1
vn 0 0 -1
vn 0 -1 0
vn 0 1 0

# texcoords
vt 0.365234 0.5
vt 0.369141 0.5

# verts
v -2.9 0 4.9
v -2.9 0 4.5
v -2.9 0.1 4.9
v -2.9 0.1 4.5
v -2.8 0 4.5
v -2.8 0 4.1
v -2.8 0.1 4.8
v -2.8 0.1 4.6
v -2.8 0.1 4.5
v -2.8 0.1 4.1
v -2.8 0.2 4.8
v -2.8 0.2 4.6
v -2.7 0 5
v -2.7 0 4.9
v -2.7 0 4.1
v -2.7 0 4
v -2.7 0.1 5
v -2.7 0.1 4.9
v -2.7 0.1 4.6
v -2.7 0.1 4.5
v -2.7 0.1 4.4
v -2.7 0.1 4.2
v -2.7 0.1 4.1
v -2.7 0.1 4
v -2.7 0.2 4.6
v -2.7 0.2 4.5
v -2.7 0.2 4.4
v -2.7 0.2 4.2
v -2.6 0.1 4.5
v -2.6 0.1 4.4
v -2.6 0.1 4.2
v -2.6 0.1 4.1
v -2.6 0.2 4.7
v -2.6 0.2 4.5
v -2.6 0.2 4.4
v -2.6 0.2 4.2
v -2.6 0.2 4.1
v -2.6 0.3 4.9
v -2.6 0.3 4.7
v -2.6 0.4 4.9
v -2.6 0.4 4.8
v -2.6 0.4 4.5
v -2.6 0.4 4.4
v -2.6 0.5 4.8
v -2.6 0.5 4.5
v -2.5 0.2 4.8
v -2.5 0.2 4.7
v -2.5 0.2 4.4
v -2.5 0.2 4.2
v -2.5 0.3 4.8
v -2.5 0.3 4.7
v -2.5 0.4 4.9
v -2.5 0.4 4.8
v -2.5 0.4 4.5
v -2.5 0.4 4.4
v -2.5 0.4 4.2
v -2.5 0.5 4.9
v -2.5 0.5 4.8
v -2.5 0.5 4.5
v -2.5 0.5 4.4
v -2.4 0 5
v -2.4 0 4.9
v -2.4 0.1 5
v -2.4 0.1 4.9
v -2.2 0 4
v -2.2 0 3.9
v -2.2 0.1 5
v -2.2 0.1 4.8
v -2.2 0.1 4.2
v -2.2 0.1 4.1
v -2.2 0.1 4
v -2.2 0.1 3.9
v -2.2 0.2 5
v -2.2 0.2 4.9
v -2.2 0.2 4.2
v -2.2 0.2 4.1
v -2.2 0.3 4.9
v -2.2 0.3 4.8
v -2.5 0 5
v -2.5 0 4.9
v -2.5 0.1 5
v -2.5 0.1 4.9
v -2.4 0.1 4.2
v -2.4 0.1 4.1
v -2.4 0.2 4.2
v -2.4 0.2 4.1
v -2.3 0.3 4.3
v -2.3 0.3 4.2
v -2.3 0.4 4.3
v -2.3 0.4 4.2
v -2.2 0.2 4.3
v -2.2 0.2 4.2
v -2.2 0.3 4.3
v -2.2 0.3 4.2
v -2.2 0.4 4.9
v -2.2 0.4 4.8
v -2.2 0.5 4.9
v -2.2 0.5 4.8
v -2.1 0 5
v -2.1 0 4.9
v -2.1 0.1 5
v -2.1 0.1 4.9
v -2.1 0.2 5
v -2.1 0.2 4.9
v -2.1 0.2 4.6
v -2.1 0.2 4.4
v -2.1 0.2 4.3
v -2.1 0.3 4.6
v -2.1 0.3 4.4
v -2.1 0.4 4.9
v -2.1 0.4 4.8
v -2.1 0.4 4.4
v -2.1 0.4 4.3
v -2.1 0.5 4.8
v -2.1 0.5 4.4
v -2 0 4
v -2 0 3.9
v -2 0.1 4.9
v -2 0.1 4.4
v -2 0.1 4.3
v -2 0.1 4
v -2 0.1 3.9
v -2 0.2 4.9
v -2 0.2 4.6
v -2 0.2 4.4
v -2 0.2 4.3
v -2 0.3 4.6
v -2 0.3 4.4
v -1.9 0 4.9
v -1.9 0 4.8
v -1.9 0.1 4.9
v -1.9 0.1 4.8
v -1.9 0.1 4.3
v -1.9 0.1 4.1
v -1.9 0.2 4.3
v -1.9 0.2 4.1
v -1.8 0 4.8
v -1.8 0 4.7
v -1.8 0 4.5
v -1.8 0 4
v -1.8 0.1 4.8
v -1.8 0.1 4.7
v -1.8 0.1 4.5
v -1.8 0.1 4
v -1.7 0 4.7
v -1.7 0 4.5
v -1.7 0.1 4.7
v -1.7 0.1 4.5
v -2.7 0 5
v -2.7 0.1 5
v -2.5 0 5
v -2.5 0.1 5
v -2.4 0 5
v -2.4 0.1 5
v -2.2 0.1 5
v -2.2 0.2 5
v -2.1 0 5
v -2.1 0.1 5
v -2.1 0.2 5
v -2.9 0 4.9
v -2.9 0.1 4.9
v -2.7 0 4.9
v -2.7 0.1 4.9
v -2.6 0.3 4.9
v -2.6 0.4 4.9
v -2.5 0 4.9
v -2.5 0.1 4.9
v -2.5 0.4 4.9
v -2.5 0.5 4.9
v -2.4 0 4.9
v -2.4 0.1 4.9
v -2.2 0.2 4.9
v -2.2 0.3 4.9
v -2.2 0.4 4.9
v -2.2 0.5 4.9
v -2.1 0 4.9
v -2.1 0.1 4.9
v -2.1 0.2 4.9
v -2.1 0.4 4.9
v -2 0.1 4.9
v -2 0.2 4.9
v -1.9 0 4.9
v -1.9 0.1 4.9
v -2.8 0.1 4.8
v -2.8 0.2 4.8
v -2.6 0.4 4.8
v -2.6 0.5 4.8
v -2.5 0.1 4.8
v -2.5 0.2 4.8
v -2.5 0.3 4.8
v -2.5 0.4 4.8
v -2.5 0.5 4.8
v -2.2 0.1 4.8
v -2.2 0.3 4.8
v -2.2 0.4 4.8
v -2.2 0.5 4.8
v -2.1 0.4 4.8
v -2.1 0.5 4.8
v -1.9 0 4.8
v -1.9 0.1 4.8
v -1.8 0 4.8
v -1.8 0.1 4.8
v -2.6 0.2 4.7
v -2.6 0.3 4.7
v -2.5 0.2 4.7
v -2.5 0.3 4.7
v -1.8 0 4.7
v -1.8 0.1 4.7
v -1.7 0 4.7
v -1.7 0.1 4.7
v -2.1 0.2 4.6
v -2.1 0.3 4.6
v -2 0.2 4.6
v -2 0.3 4.6
v -2.7 0.1 4.4
v -2.7 0.2 4.4
v -2.6 0.1 4.4
v -2.6 0.2 4.4
v -2 0.1 4.3
v -2 0.2 4.3
v -1.9 0.1 4.3
v -1.9 0.2 4.3
v -2.8 0.1 4.6
v -2.8 0.2 4.6
v -2.7 0.1 4.6
v -2.7 0.2 4.6
v -2.9 0 4.5
v -2.9 0.1 4.5
v -2.8 0 4.5
v -2.8 0.1 4.5
v -2.7 0.1 4.5
v -2.7 0.2 4.5
v -2.6 0.1 4.5
v -2.6 0.2 4.5
v -2.6 0.4 4.5
v -2.6 0.5 4.5
v -2.5 0.4 4.5
v -2.5 0.5 4.5
v -1.8 0 4.5
v -1.8 0.1 4.5
v -1.7 0 4.5
v -1.7 0.1 4.5
v -2.6 0.2 4.4
v -2.6 0.4 4.4
v -2.5 0.2 4.4
v -2.5 0.4 4.4
v -2.5 0.5 4.4
v -2.1 0.2 4.4
v -2.1 0.3 4.4
v -2.1 0.4 4.4
v -2.1 0.5 4.4
v -2 0.2 4.4
v -2 0.3 4.4
v -2.3 0.3 4.3
v -2.3 0.4 4.3
v -2.2 0.2 4.3
v -2.2 0.3 4.3
v -2.1 0.2 4.3
v -2.1 0.4 4.3
v -2.7 0.1 4.2
v -2.7 0.2 4.2
v -2.6 0.1 4.2
v -2.6 0.2 4.2
v -2.5 0.2 4.2
v -2.5 0.4 4.2
v -2.4 0.1 4.2
v -2.4 0.2 4.2
v -2.3 0.3 4.2
v -2.3 0.4 4.2
v -2.2 0.1 4.2
v -2.2 0.2 4.2
v -2.2 0.3 4.2
v -2.8 0 4.1
v -2.8 0.1 4.1
v -2.7 0 4.1
v -2.7 0.1 4.1
v -2.6 0.1 4.1
v -2.6 0.2 4.1
v -2.4 0.1 4.1
v -2.4 0.2 4.1
v -2.2 0.1 4.1
v -2.2 0.2 4.1
v -1.9 0.1 4.1
v -1.9 0.2 4.1
v -2.7 0 4
v -2.7 0.1 4
v -2.2 0 4
v -2.2 0.1 4
v -2 0 4
v -2 0.1 4
v -1.8 0 4
v -1.8 0.1 4
v -2.2 0 3.9
v -2.2 0.1 3.9
v -2 0 3.9
v -2 0.1 3.9
v -2.7 0 5
v -2.5 0 5
v -2.4 0 5
v -2.1 0 5
v -2.9 0 4.9
v -2.7 0 4.9
v -2.5 0 4.9
v -2.4 0 4.9
v -2.1 0 4.9
v -1.9 0 4.9
v -1.9 0 4.8
v -1.8 0 4.8
v -2.1 0 4.7
v -2 0 4.7
v -1.8 0 4.7
v -1.7 0 4.7
v -2.4 0 4.6
v -2.1 0 4.6
v -2.9 0 4.5
v -2.8 0 4.5
v -2.5 0 4.5
v -2.4 0 4.5
v -1.8 0 4.5
v -1.7 0 4.5
v -2.5 0 4.4
v -2.4 0 4.4
v -2.4 0 4.3
v -2.3 0 4.3
v -2.3 0 4.2
v -2 0 4.2
v -2.8 0 4.1
v -2.7 0 4.1
v -2.7 0 4
v -2.2 0 4
v -2 0 4
v -1.8 0 4
v -2.2 0 3.9
v -2 0 3.9
v -2.6 0.3 4.9
v -2.2 0.3 4.9
v -2.5 0.3 4.8
v -2.2 0.3 4.8
v -2.6 0.3 4.7
v -2.5 0.3 4.7
v -2.7 0.1 5
v -2.5 0.1 5
v -2.4 0.1 5
v -2.2 0.1 5
v -2.9 0.1 4.9
v -2.7 0.1 4.9
v -2.5 0.1 4.9
v -2.4 0.1 4.9
v -2 0.1 4.9
v -1.9 0.1 4.9
v -2.8 0.1 4.8
v -2.5 0.1 4.8
v -2.2 0.1 4.8
v -1.9 0.1 4.8
v -1.8 0.1 4.8
v -1.8 0.1 4.7
v -1.7 0.1 4.7
v -2.8 0.1 4.6
v -2.7 0.1 4.6
v -2.9 0.1 4.5
v -2.8 0.1 4.5
v -2.7 0.1 4.5
v -2.6 0.1 4.5
v -1.8 0.1 4.5
v -1.7 0.1 4.5
v -2.7 0.1 4.4
v -2.6 0.1 4.4
v -2 0.1 4.4
v -2 0.1 4.3
v -1.9 0.1 4.3
v -2.7 0.1 4.2
v -2.6 0.1 4.2
v -2.4 0.1 4.2
v -2.2 0.1 4.2
v -2.8 0.1 4.1
v -2.7 0.1 4.1
v -2.6 0.1 4.1
v -2.4 0.1 4.1
v -2.2 0.1 4.1
v -1.9 0.1 4.1
v -2.7 0.1 4
v -2.2 0.1 4
v -2 0.1 4
v -1.8 0.1 4
v -2.2 0.1 3.9
v -2 0.1 3.9
v -2.2 0.2 5
v -2.1 0.2 5
v -2.2 0.2 4.9
v -2.1 0.2 4.9
v -2 0.2 4.9
v -2.8 0.2 4.8
v -2.5 0.2 4.8
v -2.6 0.2 4.7
v -2.5 0.2 4.7
v -2.8 0.2 4.6
v -2.7 0.2 4.6
v -2.1 0.2 4.6
v -2 0.2 4.6
v -2.7 0.2 4.5
v -2.6 0.2 4.5
v -2.7 0.2 4.4
v -2.6 0.2 4.4
v -2.5 0.2 4.4
v -2.1 0.2 4.4
v -2 0.2 4.4
v -2.2 0.2 4.3
v -2.1 0.2 4.3
v -2 0.2 4.3
v -1.9 0.2 4.3
v -2.7 0.2 4.2
v -2.6 0.2 4.2
v -2.5 0.2 4.2
v -2.4 0.2 4.2
v -2.2 0.2 4.2
v -2.1 0.2 4.2
v -2.6 0.2 4.1
v -2.4 0.2 4.1
v -2.2 0.2 4.1
v -1.9 0.2 4.1
v -2.1 0.3 4.6
v -2 0.3 4.6
v -2.1 0.3 4.4
v -2 0.3 4.4
v -2.3 0.3 4.3
v -2.2 0.3 4.3
v -2.3 0.3 4.2
v -2.2 0.3 4.2
v -2.6 0.4 4.9
v -2.5 0.4 4.9
v -2.2 0.4 4.9
v -2.1 0.4 4.9
v -2.6 0.4 4.8
v -2.5 0.4 4.8
v -2.2 0.4 4.8
v -2.1 0.4 4.8
v -2.6 0.4 4.5
v -2.5 0.4 4.5
v -2.6 0.4 4.4
v -2.5 0.4 4.4
v -2.1 0.4 4.4
v -2.3 0.4 4.3
v -2.1 0.4 4.3
v -2.5 0.4 4.2
v -2.3 0.4 4.2
v -2.5 0.5 4.9
v -2.2 0.5 4.9
v -2.6 0.5 4.8
v -2.5 0.5 4.8
v -2.2 0.5 4.8
v -2.1 0.5 4.8
v -2.6 0.5 4.5
v -2.5 0.5 4.5
v -2.5 0.5 4.4
v -2.1 0.5 4.4

# faces
f 3/2/1 2/2/1 1/2/1
f 4/2/1 2/2/1 3/2/1
f 9/2/1 6/2/1 5/2/1
f 10/2/1 6/2/1 9/2/1
f 11/2/1 8/2/1 7/2/1
f 12/2/1 8/2/1 11/2/1
f 17/2/1 14/2/1 13/2/1
f 18/2/1 14/2/1 17/2/1
f 23/2/1 16/2/1 15/2/1
f 24/2/1 16/2/1 23/2/1
f 25/2/1 20/2/1 19/2/1
f 26/2/1 20/2/1 25/2/1
f 27/2/1 22/2/1 21/2/1
f 28/2/1 22/2/1 27/2/1
f 34/2/1 30/2/1 29/2/1
f 35/2/1 30/2/1 34/2/1
f 36/2/1 32/2/1 31/2/1
f 37/2/1 32/2/1 36/2/1
f 39/1/1 35/1/1 34/1/1
f 39/1/1 34/1/1 33/1/1
f 40/1/1 39/1/1 38/1/1
f 41/1/1 39/1/1 40/1/1
f 42/1/1 35/1/1 39/1/1
f 42/1/1 39/1/1 41/1/1
f 43/1/1 35/1/1 42/1/1
f 44/1/1 42/1/1 41/1/1
f 45/1/1 42/1/1 44/1/1
f 50/1/1 47/1/1 46/1/1
f 51/1/1 47/1/1 50/1/1
f 55/1/1 49/1/1 48/1/1
f 56/1/1 49/1/1 55/1/1
f 57/1/1 53/1/1 52/1/1
f 58/1/1 53/1/1 57/1/1
f 59/1/1 55/1/1 54/1/1
f 60/1/1 55/1/1 59/1/1
f 63/2/1 62/2/1 61/2/1
f 64/2/1 62/2/1 63/2/1
f 71/2/1 66/2/1 65/2/1
f 72/2/1 66/2/1 71/2/1
f 73/1/1 68/1/1 67/1/1
f 74/1/1 68/1/1 73/1/1
f 75/2/1 70/2/1 69/2/1
f 76/2/1 70/2/1 75/2/1
f 77/1/1 68/1/1 74/1/1
f 78/1/1 68/1/1 77/1/1
f 79/2/2 80/2/2 81/2/2
f 81/2/2 80/2/2 82/2/2
f 83/2/2 84/2/2 85/2/2
f 85/2/2 84/2/2 86/2/2
f 87/1/2 88/1/2 89/1/2
f 89/1/2 88/1/2 90/1/2
f 91/1/2 92/1/2 93/1/2
f 93/1/2 92/1/2 94/1/2
f 95/1/2 96/1/2 97/1/2
f 97/1/2 96/1/2 98/1/2
f 99/2/2 100/2/2 101/2/2
f 101/2/2 100/2/2 102/2/2
f 101/1/2 102/1/2 103/1/2
f 103/1/2 102/1/2 104/1/2
f 104/1/2 105/1/2 108/1/2
f 106/1/2 107/1/2 109/1/2
f 104/1/2 108/1/2 110/1/2
f 108/1/2 109/1/2 110/1/2
f 110/1/2 109/1/2 111/1/2
f 109/1/2 107/1/2 112/1/2
f 111/1/2 109/1/2 112/1/2
f 112/1/2 107/1/2 113/1/2
f 111/1/2 112/1/2 114/1/2
f 114/1/2 112/1/2 115/1/2
f 116/2/2 117/2/2 121/2/2
f 121/2/2 117/2/2 122/2/2
f 118/1/2 119/1/2 123/1/2
f 123/1/2 119/1/2 124/1/2
f 119/2/2 120/2/2 125/2/2
f 124/1/2 119/1/2 125/1/2
f 125/2/2 120/2/2 126/2/2
f 124/2/2 125/2/2 127/2/2
f 127/2/2 125/2/2 128/2/2
f 129/2/2 130/2/2 131/2/2
f 131/2/2 130/2/2 132/2/2
f 133/2/2 134/2/2 135/2/2
f 135/2/2 134/2/2 136/2/2
f 137/2/2 138/2/2 141/2/2
f 141/2/2 138/2/2 142/2/2
f 139/2/2 140/2/2 143/2/2
f 143/2/2 140/2/2 144/2/2
f 145/2/2 146/2/2 147/2/2
f 147/2/2 146/2/2 148/2/2
f 151/2/3 150/2/3 149/2/3
f 152/2/3 150/2/3 151/2/3
f 155/2/3 154/2/3 153/2/3
f 157/2/3 155/2/3 153/2/3
f 158/1/3 156/1/3 155/1/3
f 158/2/3 155/2/3 157/2/3
f 159/1/3 156/1/3 158/1/3
f 162/2/3 161/2/3 160/2/3
f 163/2/3 161/2/3 162/2/3
f 168/1/3 165/1/3 164/1/3
f 170/2/3 167/2/3 166/2/3
f 171/2/3 167/2/3 170/2/3
f 173/1/3 169/1/3 168/1/3
f 173/1/3 168/1/3 164/1/3
f 174/1/3 169/1/3 173/1/3
f 175/1/3 169/1/3 174/1/3
f 178/1/3 173/1/3 172/1/3
f 178/1/3 174/1/3 173/1/3
f 179/1/3 174/1/3 178/1/3
f 180/2/3 177/2/3 176/2/3
f 180/1/3 178/1/3 177/1/3
f 181/1/3 178/1/3 180/1/3
f 182/2/3 180/2/3 176/2/3
f 183/2/3 180/2/3 182/2/3
f 188/2/3 185/2/3 184/2/3
f 189/2/3 185/2/3 188/2/3
f 191/1/3 187/1/3 186/1/3
f 192/1/3 187/1/3 191/1/3
f 193/1/3 190/1/3 189/1/3
f 193/1/3 189/1/3 188/1/3
f 194/1/3 190/1/3 193/1/3
f 197/1/3 196/1/3 195/1/3
f 198/1/3 196/1/3 197/1/3
f 201/2/3 200/2/3 199/2/3
f 202/2/3 200/2/3 201/2/3
f 205/1/3 204/1/3 203/1/3
f 206/1/3 204/1/3 205/1/3
f 209/2/3 208/2/3 207/2/3
f 210/2/3 208/2/3 209/2/3
f 213/2/3 212/2/3 211/2/3
f 214/2/3 212/2/3 213/2/3
f 217/2/3 216/2/3 215/2/3
f 218/2/3 216/2/3 217/2/3
f 221/2/3 220/2/3 219/2/3
f 222/2/3 220/2/3 221/2/3
f 223/2/4 224/2/4 225/2/4
f 225/2/4 224/2/4 226/2/4
f 227/2/4 228/2/4 229/2/4
f 229/2/4 228/2/4 230/2/4
f 231/2/4 232/2/4 233/2/4
f 233/2/4 232/2/4 234/2/4
f 235/1/4 236/1/4 237/1/4
f 237/1/4 236/1/4 238/1/4
f 239/2/4 240/2/4 241/2/4
f 241/2/4 240/2/4 242/2/4
f 243/1/4 244/1/4 245/1/4
f 245/1/4 244/1/4 246/1/4
f 246/1/4 247/1/4 250/1/4
f 250/1/4 247/1/4 251/1/4
f 248/2/4 249/2/4 252/2/4
f 252/2/4 249/2/4 253/2/4
f 254/1/4 255/1/4 257/1/4
f 256/1/4 257/1/4 258/1/4
f 257/1/4 255/1/4 259/1/4
f 258/1/4 257/1/4 259/1/4
f 260/2/4 261/2/4 262/2/4
f 262/2/4 261/2/4 263/2/4
f 264/1/4 265/1/4 267/1/4
f 267/1/4 265/1/4 268/1/4
f 266/1/4 267/1/4 268/1/4
f 268/1/4 265/1/4 269/1/4
f 266/1/4 268/1/4 270/1/4
f 270/1/4 268/1/4 271/1/4
f 271/1/4 268/1/4 272/1/4
f 273/2/4 274/2/4 275/2/4
f 275/2/4 274/2/4 276/2/4
f 277/2/4 278/2/4 279/2/4
f 279/2/4 278/2/4 280/2/4
f 281/2/4 282/2/4 283/2/4
f 283/2/4 282/2/4 284/2/4
f 285/2/4 286/2/4 287/2/4
f 287/2/4 286/2/4 288/2/4
f 289/2/4 290/2/4 291/2/4
f 291/2/4 290/2/4 292/2/4
f 293/2/4 294/2/4 295/2/4
f 295/2/4 294/2/4 296/2/4
f 302/2/5 298/2/5 297/2/5
f 303/2/5 298/2/5 302/2/5
f 304/2/5 300/2/5 299/2/5
f 305/2/5 300/2/5 304/2/5
f 307/2/5 303/2/5 302/2/5
f 307/2/5 306/2/5 305/2/5
f 307/2/5 305/2/5 304/2/5
f 307/2/5 304/2/5 303/2/5
f 307/2/5 302/2/5 301/2/5
f 309/2/5 307/2/5 301/2/5
f 309/2/5 308/2/5 307/2/5
f 310/2/5 308/2/5 309/2/5
f 311/2/5 308/2/5 310/2/5
f 313/2/5 309/2/5 301/2/5
f 314/1/5 310/1/5 309/1/5
f 314/2/5 309/2/5 313/2/5
f 315/2/5 313/2/5 301/2/5
f 316/2/5 313/2/5 315/2/5
f 317/2/5 313/2/5 316/2/5
f 318/1/5 314/1/5 313/1/5
f 318/2/5 313/2/5 317/2/5
f 319/2/5 312/2/5 311/2/5
f 319/2/5 311/2/5 310/2/5
f 320/2/5 312/2/5 319/2/5
f 321/1/5 318/1/5 317/1/5
f 321/2/5 317/2/5 316/2/5
f 322/1/5 314/1/5 318/1/5
f 322/1/5 318/1/5 321/1/5
f 323/2/5 322/2/5 321/2/5
f 323/1/5 314/1/5 322/1/5
f 324/1/5 314/1/5 323/1/5
f 325/2/5 324/2/5 323/2/5
f 325/1/5 314/1/5 324/1/5
f 326/1/5 310/1/5 314/1/5
f 326/1/5 314/1/5 325/1/5
f 326/2/5 319/2/5 310/2/5
f 327/2/5 321/2/5 316/2/5
f 327/2/5 325/2/5 323/2/5
f 327/2/5 326/2/5 325/2/5
f 327/2/5 323/2/5 321/2/5
f 328/2/5 326/2/5 327/2/5
f 329/2/5 326/2/5 328/2/5
f 330/2/5 326/2/5 329/2/5
f 331/2/5 319/2/5 326/2/5
f 331/2/5 326/2/5 330/2/5
f 332/2/5 319/2/5 331/2/5
f 333/2/5 331/2/5 330/2/5
f 334/2/5 331/2/5 333/2/5
f 337/1/5 336/1/5 335/1/5
f 338/1/5 336/1/5 337/1/5
f 339/1/5 337/1/5 335/1/5
f 340/1/5 337/1/5 339/1/5
f 341/2/6 342/2/6 346/2/6
f 346/2/6 342/2/6 347/2/6
f 343/2/6 344/2/6 348/2/6
f 346/2/6 347/2/6 351/2/6
f 345/2/6 346/2/6 351/2/6
f 347/2/6 348/2/6 351/2/6
f 351/2/6 348/2/6 352/2/6
f 348/2/6 344/2/6 353/2/6
f 352/2/6 348/2/6 353/2/6
f 349/2/6 350/2/6 354/2/6
f 354/2/6 355/2/6 356/2/6
f 345/2/6 351/2/6 358/2/6
f 345/2/6 358/2/6 360/2/6
f 358/2/6 359/2/6 360/2/6
f 360/2/6 359/2/6 361/2/6
f 361/2/6 359/2/6 362/2/6
f 356/2/6 357/2/6 364/2/6
f 354/2/6 356/2/6 364/2/6
f 364/2/6 357/2/6 365/2/6
f 362/2/6 363/2/6 366/2/6
f 361/2/6 362/2/6 366/2/6
f 366/2/6 363/2/6 367/2/6
f 349/2/6 354/2/6 368/2/6
f 354/2/6 364/2/6 368/2/6
f 368/2/6 364/2/6 369/2/6
f 369/2/6 364/2/6 370/2/6
f 361/2/6 366/2/6 371/2/6
f 361/2/6 371/2/6 375/2/6
f 371/2/6 372/2/6 375/2/6
f 375/2/6 372/2/6 376/2/6
f 376/2/6 372/2/6 377/2/6
f 373/2/6 374/2/6 378/2/6
f 378/2/6 374/2/6 379/2/6
f 370/2/6 364/2/6 380/2/6
f 378/2/6 379/2/6 381/2/6
f 379/2/6 380/2/6 381/2/6
f 376/2/6 377/2/6 381/2/6
f 377/2/6 378/2/6 381/2/6
f 381/2/6 380/2/6 382/2/6
f 382/2/6 380/2/6 383/2/6
f 380/2/6 364/2/6 384/2/6
f 383/2/6 380/2/6 384/2/6
f 382/2/6 383/2/6 385/2/6
f 385/2/6 383/2/6 386/2/6
f 387/1/6 388/1/6 389/1/6
f 389/1/6 388/1/6 390/1/6
f 392/2/6 393/2/6 394/2/6
f 394/2/6 393/2/6 395/2/6
f 392/2/6 394/2/6 396/2/6
f 396/2/6 394/2/6 397/2/6
f 390/1/6 391/1/6 398/1/6
f 398/1/6 391/1/6 399/1/6
f 397/2/6 394/2/6 400/2/6
f 400/2/6 394/2/6 401/2/6
f 405/2/6 406/2/6 408/2/6
f 408/2/6 406/2/6 409/2/6
f 402/2/6 403/2/6 411/2/6
f 403/2/6 404/2/6 411/2/6
f 411/2/6 404/2/6 412/2/6
f 412/2/6 404/2/6 413/2/6
f 407/1/6 408/1/6 415/1/6
f 408/2/6 409/2/6 416/2/6
f 415/1/6 408/1/6 416/1/6
f 409/2/6 410/2/6 416/2/6
f 412/2/6 413/2/6 417/2/6
f 413/2/6 414/2/6 417/2/6
f 417/2/6 414/2/6 418/2/6
f 415/2/6 416/2/6 419/2/6
f 416/2/6 410/2/6 420/2/6
f 419/2/6 416/2/6 420/2/6
f 421/2/6 422/2/6 423/2/6
f 423/2/6 422/2/6 424/2/6
f 425/1/6 426/1/6 427/1/6
f 427/1/6 426/1/6 428/1/6
f 429/1/6 430/1/6 433/1/6
f 433/1/6 430/1/6 434/1/6
f 431/1/6 432/1/6 435/1/6
f 435/1/6 432/1/6 436/1/6
f 437/1/6 438/1/6 439/1/6
f 439/1/6 438/1/6 440/1/6
f 440/1/6 441/1/6 442/1/6
f 442/1/6 441/1/6 443/1/6
f 440/1/6 442/1/6 444/1/6
f 444/1/6 442/1/6 445/1/6
f 446/1/6 447/1/6 449/1/6
f 449/1/6 447/1/6 450/1/6
f 448/1/6 449/1/6 452/1/6
f 450/1/6 451/1/6 452/1/6
f 449/1/6 450/1/6 452/1/6
f 452/1/6 451/1/6 453/1/6
f 453/1/6 451/1/6 454/1/6
f 454/1/6 451/1/6 455/1/6
